<svg width="200" height="50" viewBox="0 0 200 50" fill="none" xmlns="http://www.w3.org/2000/svg">
  <!-- Icon: Two hearts connecting (match concept) -->
  <g transform="translate(0, 5)">
    <!-- Left heart -->
    <path d="M12 8C10.5 4 7 3 4.5 5C2 7 2 11 4 14L12 22L14 20" 
          fill="#EC7711" opacity="0.8"/>
    <!-- Right heart -->
    <path d="M12 8C13.5 4 17 3 19.5 5C22 7 22 11 20 14L12 22L10 20" 
          fill="#EC7711"/>
    <!-- Sparkle/Match indicator -->
    <circle cx="12" cy="12" r="2" fill="#FFF"/>
    <path d="M12 6L12.5 8.5L15 9L12.5 9.5L12 12L11.5 9.5L9 9L11.5 8.5Z" 
          fill="#FFF" opacity="0.9"/>
  </g>
  
  <!-- Text: CoachaMi -->
  <text x="32" y="32" font-family="Georgia, serif" font-size="28" font-weight="600" fill="#2D3436">
    Coacha<tspan fill="#EC7711" font-style="italic">Mi</tspan>
  </text>
</svg>